<?xml version="1.0" encoding="UTF-8"?>
<svg id="Camada_1" xmlns="http://www.w3.org/2000/svg" version="1.1" viewBox="0 0 1440 500">
  <!-- Generator: Adobe Illustrator 29.8.6, SVG Export Plug-In . SVG Version: 2.1.1 Build 1)  -->
  <defs>
    <style>
      .st0 {
        fill: #fefae0;
        stroke: #fefae0;
        stroke-miterlimit: 10;
      }
    </style>
  </defs>
  <path class="st0" d="M1439.61,233.58c.53-4.22.85-10.53-.66-17.92-1.2-5.89-4.19-15.54-11.95-24.55-3.42-3.97-14.35-16.67-29.86-17.25-4.15-.16-6.87.62-23.89,7.96-25.95,11.2-27.45,12.78-35.17,15.26-17.3,5.56-18.06.28-37.83,4.65-12.21,2.69-25.12,9.13-50.43,21.9-27.82,14.03-23.11,13.24-31.85,16.59-22.61,8.66-43.22,9.77-61.72,10.62-12.06.56-8.41-.36-33.18,0-25.43.37-38.42.6-52.43,3.32-12.03,2.33-20.21,5.26-35.17,10.62-23.56,8.44-29.74,12.9-45.79,19.24-11.42,4.52-39.83,15.75-69.02,15.93-27.87.17-40.11-9.83-64.37-17.25-61.46-18.81-72.04,18.11-165.24,12.61-40.78-2.41-65.07-11.03-107.51-1.99-12.2,2.6-19.14,5.22-33.18,5.97-33.36,1.79-41.47-14.11-80.96-17.92-27.81-2.68-44.6-.74-84.94-6.64-18.41-2.69-31.8-5.56-46.45-10.62-5.95-2.05-10.35-3.86-39.82-17.92-41.14-19.63-46.49-22.75-59.73-25.88-12.47-2.95-25.31-5.84-41.14-2.65-2.51.5-4.97,1.14-31.19,11.28-16.9,6.54-25.35,9.81-30.53,11.95-26.64,11-29.43,13.78-41.14,15.93-6.66,1.22-13.29,1.26-26.54,1.33-11.01.06-26.12.07-45.13-3.32-9.5-1.69-17.25-3.74-22.56-5.31l3.39,74.17,887.18,2.8,339.77-9.29,209.04-3.32v-80.3Z"/>
</svg>